<?xml version="1.0" encoding="UTF-8" standalone="no"?>
<!-- Created with Inkscape (http://www.inkscape.org/) -->

<svg
   width="600"
   height="1024"
   viewBox="0 0 300 512"
   version="1.1"
   id="svg1"
   xml:space="preserve"
   sodipodi:docname="background2-plain.svg"
   inkscape:export-filename="background2-888.png"
   inkscape:export-xdpi="96"
   inkscape:export-ydpi="96"
   inkscape:version="1.4.2 (ebf0e94, 2025-05-08)"
   xmlns:inkscape="http://www.inkscape.org/namespaces/inkscape"
   xmlns:sodipodi="http://sodipodi.sourceforge.net/DTD/sodipodi-0.dtd"
   xmlns="http://www.w3.org/2000/svg"
   xmlns:svg="http://www.w3.org/2000/svg"
   xmlns:rdf="http://www.w3.org/1999/02/22-rdf-syntax-ns#"
   xmlns:cc="http://creativecommons.org/ns#"><sodipodi:namedview
     id="namedview1"
     pagecolor="#ffffff"
     bordercolor="#000000"
     borderopacity="0.25"
     inkscape:showpageshadow="2"
     inkscape:pageopacity="0.0"
     inkscape:pagecheckerboard="0"
     inkscape:deskcolor="#d1d1d1"
     inkscape:export-bgcolor="#000000ff"
     inkscape:zoom="1.1396484"
     inkscape:cx="300.09255"
     inkscape:cy="512.00002"
     inkscape:window-width="2560"
     inkscape:window-height="1369"
     inkscape:window-x="2552"
     inkscape:window-y="-8"
     inkscape:window-maximized="1"
     inkscape:current-layer="svg1" /><defs
     id="defs1" /><rect
     style="fill:#000000;fill-opacity:1;stroke-width:1.09109"
     id="rect8"
     width="300"
     height="512"
     x="0"
     y="1.3877788e-17" /><path
     style="display:inline;fill:#cc99ff;fill-opacity:1;stroke-width:2.09539"
     d="m 2.4999999,438.99998 c 0,0 0,0 0,-49.56419 V 340.49998 H 32.499999 v 49.24994 49.25006 z"
     id="path15" /><path
     style="display:inline;fill:#cc4444;fill-opacity:1;stroke-width:2.39669"
     d="M 2.4999999,32.29457 C 4.0380731,32.533945 42.449102,3.9999998 42.449102,3.9999998 L 299.51526,4.8399357 300,58.027996 52.488599,58.976011 32.493162,75.238002 l -2e-6,16.261994 H 2.4999999 Z"
     id="path19" /><path
     style="display:inline;fill:#ff8800;fill-opacity:1;stroke-width:0.848528"
     d="m 2.4999999,117 c 0,0 0,-4.5887 0,-10 V 97.040322 H 17.499999 l 15.000002,-0.04033 v 9.999998 10 H 17.499999 c -14.9999991,0 -14.9020969,-0.005 -14.9999991,0 z"
     id="path18" /><path
     style="display:inline;fill:#ff8866;fill-opacity:1;stroke-width:6.63628"
     d="M 2.4999995,201.00001 V 122.99999 H 17.499999 32.500001 v 78.00002 77.99997 H 17.499999 2.4999995 Z"
     id="path17" /><path
     style="display:inline;fill:#cc4444;fill-opacity:1;stroke-width:3.85327"
     d="M 2.4999999,309.49999 V 284 H 17.499999 32.500001 v 25.49999 25.5 H 17.499999 2.4999999 Z"
     id="path16" /><path
     style="display:inline;fill:#ff8800;fill-opacity:1;stroke-width:1.12959"
     d="m 194.99998,457.99999 h 105 v 7.49999 h -105 z"
     id="path13" /><path
     style="display:inline;fill:#cc4444;fill-opacity:1;stroke-width:7.24671"
     d="M 2.4999991,470.99997 H 190.00001 v 7.69999 l -142.495669,2e-5 -15.000001,15.39999 -0.0042,15.40001 H 2.5001771 Z"
     id="path4" /><ellipse
     style="fill:#000000;fill-opacity:1;stroke-width:0.413584"
     id="path6"
     cx="52.500004"
     cy="75.249992"
     rx="20"
     ry="16.249998" /><ellipse
     style="fill:#000000;fill-opacity:1;stroke-width:0.40251"
     id="path8"
     cx="48.75"
     cy="495.24997"
     rx="16.25"
     ry="16.749998" /><path
     id="rect12"
     style="fill:#cc99ff;fill-opacity:1;stroke-width:1.74349"
     d="m 33.85265,451.02322 156.14736,-0.0232 v 14.5 l -157.500011,-1.5e-4 z" /><ellipse
     style="fill:#000000;fill-opacity:1;stroke-width:0.377193"
     id="ellipse12"
     cx="48.749992"
     cy="441.63501"
     rx="16.25"
     ry="16.635019" /><path
     style="display:inline;fill:#ff8866;fill-opacity:1;stroke-width:1.12959"
     d="m 194.99998,470.99997 h 105 v 7.5 h -105 z"
     id="path12" /><ellipse
     style="fill:#cc99ff;fill-opacity:1;stroke-width:0.637162"
     id="ellipse14"
     ry="25.999998"
     rx="31.750002"
     cy="439.5"
     cx="34.250004" /><ellipse
     style="fill:#cc4444;fill-opacity:1;stroke-width:0.708909"
     id="ellipse13"
     cx="40.000004"
     cy="31.75"
     rx="37.5"
     ry="27.25" /><rect
     style="display:inline;fill:#000000;fill-opacity:1;stroke-width:0.623745"
     id="rect14"
     width="45.5"
     height="50"
     x="32.5"
     y="400.99997" /><rect
     style="display:inline;fill:#cc99ff;fill-opacity:1;stroke-width:0.614765"
     id="rect15"
     width="21.5"
     height="31.5"
     x="32.5"
     y="426.5" /><ellipse
     style="display:inline;fill:#000000;fill-opacity:1;stroke-width:0.738348"
     id="path21"
     cx="57.999996"
     cy="425.49997"
     rx="25.500002"
     ry="25.5" /><metadata
     id="metadata4"><rdf:RDF><cc:License
         rdf:about="http://creativecommons.org/publicdomain/zero/1.0/"><cc:permits
           rdf:resource="http://creativecommons.org/ns#Reproduction" /><cc:permits
           rdf:resource="http://creativecommons.org/ns#Distribution" /><cc:permits
           rdf:resource="http://creativecommons.org/ns#DerivativeWorks" /></cc:License><cc:Work
         rdf:about=""><cc:license
           rdf:resource="http://creativecommons.org/publicdomain/zero/1.0/" /></cc:Work></rdf:RDF></metadata></svg>
